<svg width="91" height="96" viewBox="0 0 91 96" fill="none" xmlns="http://www.w3.org/2000/svg">
<g clip-path="url(#clip0_109_293)">
<path d="M88.4514 61.4869C81.4126 53.9011 81.6858 49.3286 83.3877 45.8939C85.0896 42.4592 89.6701 33.0402 86.7285 23.0945C84.4382 15.3612 69.7934 5.12041 58.5733 11.4208C47.3533 17.7212 48.4669 13.7387 37.4359 10.6201C26.405 7.50149 15.374 12.938 12.8107 19.9759C8.86054 30.8277 20.4588 38.0764 8.73447 45.5778C-1.32995 50.4032 -5.09097 72.402 10.6255 79.7981C26.342 87.1731 25.6066 76.8059 38.7807 79.5241C51.9337 82.2424 46.5758 82.3267 67.1879 86.0985C87.8 89.8703 95.4902 69.0516 88.4514 61.4869ZM6.78042 66.0805C6.69638 66.7758 6.23413 67.2816 5.70884 67.2183C5.20457 67.1551 4.84738 66.544 4.93142 65.8698C5.01547 65.1744 5.47772 64.6687 6.003 64.7319C6.52828 64.7951 6.86447 65.3851 6.78042 66.0805ZM8.69245 60.0961C8.12514 61.6976 6.69638 62.6458 5.51974 62.2033C4.34311 61.7819 3.85985 60.1383 4.42715 58.5368C4.99446 56.9354 6.42323 55.9872 7.59986 56.4297C8.79751 56.8722 9.28077 58.4947 8.69245 60.0961ZM25.4805 20.7977C23.8206 21.8512 21.8455 21.7248 21.0471 20.5027C20.2697 19.2594 20.9631 17.4051 22.623 16.3516C24.2828 15.2769 26.2579 15.4244 27.0563 16.6466C27.8548 17.8687 27.1404 19.7441 25.4805 20.7977ZM31.1115 19.0487C30.3341 19.5544 29.4096 19.4912 29.0524 18.9012C28.6952 18.3323 29.0104 17.4473 29.7878 16.9626C30.5652 16.4569 31.4897 16.5201 31.8469 17.1101C32.2251 17.6791 31.8889 18.543 31.1115 19.0487ZM66.3055 23.5159C65.5701 24.5905 63.8051 24.6327 62.3764 23.6423C60.9476 22.6309 60.3803 20.9662 61.1157 19.8916C61.8511 18.8169 63.616 18.7748 65.0448 19.7652C66.4736 20.7766 67.0409 22.4623 66.3055 23.5159ZM80.7402 30.7434C78.1348 32.6399 73.9536 31.3334 71.3902 27.8145C68.8268 24.2955 68.8478 19.8916 71.4532 17.9951C74.0586 16.0987 78.2399 17.4051 80.8033 20.9241C83.3667 24.443 83.3246 28.8259 80.7402 30.7434Z" fill="#FFA808" fill-opacity="0.15"/>
<path d="M14.7227 76.2581C11.1718 76.7638 14.5126 81.2731 15.1429 81.3785C17.5382 81.7999 17.8324 83.317 24.4299 83.5067C25.7957 83.5488 28.4221 84.0124 30.6283 85.4874C32.8134 86.9203 34.0531 88.5006 35.9231 89.7228C38.4865 91.4085 40.2094 92.715 42.4786 92.4621C45.3152 92.125 44.6638 92.9046 50.7781 90.945C59.5608 88.1214 63.3849 96.1496 65.9903 95.6861C69.2471 95.1171 70.4657 88.8589 70.2136 83.8649C74.2688 61.0022 64.0783 38.4346 62.8806 35.906L62.8596 35.8639C57.943 25.3702 45.6724 20.5237 34.9356 24.8013C24.2618 29.0577 18.6518 40.9843 22.1607 51.9415C22.9801 54.4911 23.3373 56.9776 23.2323 59.3165C23.0432 63.8048 21.4043 70.4002 14.7857 76.2159C14.7857 76.1949 14.7647 76.2159 14.7227 76.2581Z" fill="#E8EFFE"/>
<path d="M14.7857 76.1949C21.4043 70.358 23.0432 63.7837 23.2323 59.2955C23.3373 56.9565 22.9801 54.4701 22.1607 51.9204C18.6518 40.9632 24.2618 29.0367 34.9356 24.7802C37.2048 23.8741 39.537 23.3895 41.8483 23.2631C41.5962 23.4106 27.0983 26.4027 29.0104 46.505C30.25 59.5483 37.9192 70.948 27.4976 84.2442C24.9342 83.7385 19.1981 82.7481 16.5927 82.2845C15.9834 82.1792 10.8146 77.5645 14.7437 76.237C14.7647 76.2159 14.7857 76.1949 14.7857 76.1949Z" fill="#D3E1F8"/>
<path d="M18.6728 83.0431C19.8704 81.3363 20.5007 79.2923 20.5218 77.2273C20.2696 79.187 19.4502 81.1045 18.1265 82.5795L18.6728 83.0431Z" fill="#2F3A59"/>
<path d="M16.7186 82.3477C17.4961 81.1888 17.7902 79.798 18.0213 78.4495C17.5801 79.6505 17.0758 80.9148 16.1934 81.8631L16.7186 82.3477Z" fill="#2F3A59"/>
<path d="M55.7788 90.4181C56.199 88.3742 57.2706 86.5199 58.7414 85.087C57.4807 86.6042 56.6403 88.5217 56.4722 90.4814L55.7788 90.4181Z" fill="#2F3A59"/>
<path d="M57.7329 91.0713C58.0481 89.7017 58.8675 88.5638 59.687 87.447C59.1197 88.5849 58.5313 89.8281 58.4473 91.1135L57.7329 91.0713Z" fill="#2F3A59"/>
<path d="M74.8991 58.6211C74.0166 59.5272 72.2727 60.6651 71.033 61.4237C70.7598 59.5272 70.4447 57.7151 70.0665 55.9661C70.0034 55.6922 69.9614 55.4183 69.8984 55.1443C68.5537 48.8229 66.7467 43.5339 65.381 40.036C65.2969 39.8042 65.1918 39.5724 65.1078 39.3406C64.3304 37.381 63.7421 36.0956 63.4899 35.5899L63.5109 35.5478C63.3218 35.1474 63.1117 34.747 62.9016 34.3467C64.6876 34.8735 68.8688 36.6646 73.4283 42.4803C78.3029 48.7175 78.8492 54.5965 74.8991 58.6211Z" fill="#E8EFFE"/>
<path d="M75.4033 59.1268C74.3947 60.1593 72.3986 61.4236 71.138 62.1822C70.8858 62.3297 70.6757 62.4561 70.4866 62.5826C70.2135 62.7511 70.0244 62.8354 70.0034 62.8565L69.6462 62.2454C69.6672 62.2454 69.9403 62.0769 70.3816 61.824C70.5707 61.7186 70.8018 61.5711 71.0329 61.4236C72.2726 60.6651 73.9955 59.5272 74.899 58.6211C78.8491 54.5964 78.3238 48.7175 73.4282 42.4592C68.8687 36.6435 64.6875 34.8524 62.9015 34.3256C62.3342 34.157 62.0191 34.1149 61.998 34.1149L62.0821 33.3984C62.1031 33.3984 62.2292 33.4195 62.4183 33.4617C63.721 33.7145 68.5746 35.0842 73.9955 42.0167C79.1223 48.591 79.6265 54.8282 75.4033 59.1268Z" fill="#2F3A59"/>
<path d="M51.0303 24.7592C56.073 26.7399 60.3803 30.5749 62.8596 35.8428L62.8807 35.8849C77.5466 67.0287 68.7008 93.7896 68.6798 93.7896L66.7888 95.4122C74.2688 71.8541 66.9568 47.39 61.9562 36.475C58.8255 29.6267 54.5392 26.3395 51.0303 24.7592Z" fill="white"/>
<path d="M68.0704 64.5212C68.3645 66.0805 69.268 67.2183 70.0664 67.0498C70.8859 66.9023 71.3061 65.5115 71.0119 63.9523C70.7178 62.393 69.8143 61.2551 69.0159 61.4237C68.1964 61.5922 67.7762 62.983 68.0704 64.5212Z" fill="white"/>
<path d="M68.9318 69.5994C69.0369 70.7162 69.5832 71.5802 70.1715 71.538C70.7598 71.4959 71.159 70.5477 71.054 69.4098C70.9489 68.293 70.4026 67.4291 69.8143 67.4712C69.247 67.5344 68.8478 68.4826 68.9318 69.5994Z" fill="white"/>
<path d="M70.8439 84.5813C70.8439 84.5813 70.1926 84.0967 70.2346 83.9281C71.5373 76.5741 71.3692 69.2412 70.4867 62.5826C70.4447 62.3298 70.4237 62.0769 70.3817 61.824C68.4696 48.1696 63.658 37.5706 62.8806 35.8849L62.8596 35.8428C57.943 25.3491 45.6724 20.5027 34.9356 24.7802C24.2618 29.0367 18.6518 40.9632 22.1607 51.9204C22.9801 54.4911 23.3373 56.9565 23.2323 59.2954C23.0432 63.7626 21.4253 70.2737 14.9118 76.0684L14.3235 75.647C20.7529 69.9787 22.3288 63.6151 22.5389 59.2533C22.644 56.9986 22.2868 54.5965 21.4883 52.1311C17.8534 40.8157 23.6525 28.5099 34.6624 24.127C45.021 19.9969 56.7663 24.0848 62.3974 33.4828C62.5655 33.7567 62.7336 34.0517 62.9016 34.3467C63.1118 34.7471 63.3219 35.1474 63.511 35.5478L63.532 35.5899C63.7631 36.0956 64.3724 37.4021 65.1499 39.3407C65.2339 39.5514 65.339 39.7832 65.423 40.036C66.7887 43.555 68.5747 48.8439 69.9404 55.1443C70.0035 55.4183 70.0455 55.6922 70.1085 55.9661C70.4657 57.7151 70.8019 59.5483 71.075 61.4237C71.1171 61.6765 71.1381 61.9294 71.1801 62.1823C72.0836 69.1359 72.2937 76.8691 70.8439 84.5813Z" fill="#2F3A59"/>
<path d="M52.1857 74.4038C52.1857 74.4038 48.5088 91.9354 35.0615 88.7746C35.0615 88.7746 39.0957 93.2418 45.147 92.2514C51.1982 91.2821 52.8791 89.8493 55.5265 90.3129C55.5265 90.2918 51.2192 89.0275 52.1857 74.4038Z" fill="#D3E1F8"/>
<path d="M46.6387 58.4948C46.6387 58.4948 44.6217 79.461 34.074 71.4327C34.074 71.4327 40.7976 69.8523 46.6387 58.4948Z" fill="#D3E1F8"/>
<path d="M12.8106 78.2388C12.6635 77.6488 12.8106 77.0377 13.2308 76.5952L14.6176 75.373L15.332 75.668L14.8907 76.0684L13.7141 77.1009C13.483 77.3538 13.3779 77.712 13.483 78.0702C14.4915 82.0949 19.093 82.8324 25.4804 83.4435C29.5146 83.8227 31.0274 85.2135 32.9184 86.9413C34.2001 88.1003 35.6289 89.4278 38.1923 90.7132C42.2475 92.7571 46.1556 91.7878 49.6224 90.9239C51.4924 90.4603 53.2784 90.0178 54.9593 90.0389C58.7624 90.1231 61.746 92.4621 63.7 94.0003C64.2673 94.4428 64.7506 94.8221 65.1288 95.0539C65.528 95.2857 66.0323 95.3068 66.5996 95.1171C67.7132 94.7168 68.5536 93.6842 68.7847 92.441C69.0999 90.6921 69.7723 86.8571 70.2135 84.0545C70.4026 82.9167 70.5287 82.1159 70.6127 81.4206L71.2641 81.6945C70.9699 84.1178 69.9194 90.1231 69.4781 92.5885C69.226 94.0425 68.2595 95.2435 66.9568 95.7703C66.9147 95.7914 66.8727 95.7914 66.8307 95.8125C66.0533 96.0864 65.3599 96.0653 64.7506 95.7071C64.3304 95.4543 63.8261 95.075 63.2588 94.6114C61.3678 93.1153 58.4892 90.8817 54.9383 90.7974C53.3414 90.7553 51.6185 91.1978 49.7905 91.6614C46.2186 92.5464 42.1844 93.5578 37.8771 91.3874C35.2297 90.0599 33.7589 88.6903 32.4352 87.5103C30.6282 85.8667 29.1994 84.5603 25.4174 84.202C18.7568 83.5067 13.9452 82.706 12.8106 78.2388Z" fill="#2F3A59"/>
<path d="M39.6211 66.7547C39.9153 67.0287 40.5456 66.7969 41.0499 66.2701C41.5331 65.7222 41.7012 65.069 41.4071 64.7951C41.1129 64.5211 40.4826 64.7529 39.9783 65.2797C39.4951 65.8276 39.327 66.4808 39.6211 66.7547Z" fill="white"/>
<path d="M44.9999 52.0679C44.9999 52.0679 49.013 56.514 40.4194 65.954C38.8436 67.6819 36.5533 69.3466 34.053 71.4327C34.053 71.4327 39.0747 70.0209 43.1509 64.2262C47.2271 58.4104 47.08 53.859 47.08 53.859C47.08 53.859 45.8403 51.7939 44.9999 52.0679Z" fill="white"/>
<path d="M41.7851 64.1629C42.2264 64.479 43.0248 64.0786 43.5921 63.2779C44.1594 62.4772 44.2645 61.5711 43.8442 61.2761C43.403 60.96 42.6046 61.3604 42.0373 62.1611C41.47 62.9618 41.3649 63.8468 41.7851 64.1629Z" fill="white"/>
<path d="M31.3845 55.5025C34.7043 55.6711 38.0661 54.9125 41.1338 53.5639L42.2684 53.0161C42.6256 52.8475 43.0038 52.6579 43.361 52.5525C44.0964 52.2997 44.9158 52.2154 45.5041 52.5736C46.0924 52.9107 46.4076 53.6693 46.4917 54.4279C46.5757 55.2075 46.5127 56.0083 46.3446 56.809C46.0294 58.3893 45.3991 59.9276 44.5376 61.2972C43.6972 62.709 42.7516 64.0787 41.7221 65.364C40.6925 66.6494 39.5579 67.8505 38.2972 68.9041C37.6669 69.4308 36.9945 69.9155 36.2802 70.358C35.5658 70.7794 34.8304 71.1376 34.053 71.4326C34.8514 71.2009 35.6288 70.8848 36.3852 70.5055C37.1206 70.1051 37.835 69.6626 38.5074 69.178C39.8521 68.1666 41.0707 66.9865 42.1633 65.7223C43.2559 64.4369 44.2224 63.0672 45.1259 61.6554C46.0294 60.2226 46.7018 58.6211 47.059 56.9354C47.2271 56.0925 47.2901 55.2286 47.185 54.3436C47.122 53.9011 47.0169 53.4586 46.8068 53.0372C46.5967 52.6157 46.2815 52.2364 45.8403 51.9836C45.4201 51.7307 44.9158 51.6675 44.4746 51.6886C44.0123 51.7097 43.5711 51.815 43.1719 51.9625C42.7516 52.11 42.3734 52.2997 41.9952 52.4893L40.9026 53.0582C39.4319 53.7747 37.877 54.3436 36.2802 54.765C34.6833 55.1865 33.0444 55.4604 31.3845 55.5025Z" fill="#2F3A59"/>
<path d="M70.9068 39.5935C78.3028 49.8554 68.8267 50.5929 68.8267 50.6139C69.2049 52.0468 69.5831 53.564 69.9192 55.1443C69.9823 55.4183 70.0243 55.6922 70.0873 55.9661C70.4445 57.7151 70.7807 59.5483 71.0539 61.4237C72.2725 60.6651 74.0165 59.5272 74.9199 58.6211C78.8701 54.5965 78.3448 48.7175 73.4491 42.4592C72.5667 41.3635 71.7262 40.4153 70.9068 39.5935Z" fill="#D3E1F8"/>
<path d="M55.4217 37.7181C56.5353 37.5074 57.7119 38.7506 58.0481 40.4785C58.3842 42.2274 57.7329 43.8078 56.6193 44.0185C55.5057 44.2292 54.3291 42.986 53.9929 41.2581C53.6567 39.5092 54.287 37.9288 55.4217 37.7181Z" fill="#2F3A59"/>
<path d="M59.0986 38.4767C59.0776 38.7506 58.9935 39.0667 58.7834 39.3196C58.5943 39.5724 58.3211 39.7832 58.048 39.9096C57.9009 39.9728 57.7749 40.036 57.6068 40.0992L57.1655 40.2257V38.6453L57.4387 38.7296C57.5227 38.7506 57.6278 38.7717 57.7118 38.7717C57.8799 38.7928 58.069 38.7928 58.2371 38.7296C58.5733 38.6242 58.8674 38.2028 58.9305 37.7181C59.0565 37.9499 59.1196 38.2028 59.0986 38.4767Z" fill="#2F3A59"/>
<path d="M55.2744 38.7506C55.7997 38.7717 56.2409 39.467 56.2619 40.3099C56.2829 41.1528 55.8627 41.8271 55.3374 41.806C54.8122 41.7849 54.3709 41.0895 54.3499 40.2467C54.3289 39.4038 54.7281 38.7295 55.2744 38.7506Z" fill="white"/>
<path d="M44.5377 39.8043C43.4241 40.015 42.7937 41.6164 43.1089 43.3443C43.4451 45.0721 44.6217 46.3154 45.7353 46.1047C46.8489 45.8939 47.4793 44.2925 47.1641 42.5646C46.8489 40.8157 45.6723 39.5935 44.5377 39.8043Z" fill="#2F3A59"/>
<path d="M41.4071 41.8903C41.5332 42.1432 41.7223 42.396 41.9954 42.5646C42.2686 42.7332 42.5838 42.8174 42.8989 42.8385C43.046 42.8596 43.2141 42.8385 43.3612 42.8385L43.8024 42.7964L43.2141 41.3214L42.983 41.511C42.8989 41.5531 42.8359 41.6164 42.7518 41.6585C42.5838 41.7428 42.4367 41.806 42.2476 41.806C41.8904 41.8271 41.4702 41.5531 41.218 41.1317C41.239 41.3635 41.3021 41.6374 41.4071 41.8903Z" fill="#2F3A59"/>
<path d="M45.0631 40.7103C44.5798 40.921 44.4327 41.7428 44.7269 42.5224C45.0211 43.3021 45.6514 43.7867 46.1557 43.576C46.6389 43.3653 46.786 42.5435 46.4919 41.7638C46.1977 40.9842 45.5463 40.4996 45.0631 40.7103Z" fill="white"/>
<path d="M57.1445 45.641C57.3336 46.5893 58.5942 47.1371 59.981 46.8632C61.3677 46.5893 62.3553 45.62 62.1662 44.6718C61.9771 43.7235 60.7164 43.1757 59.3296 43.4496C57.9429 43.7235 56.9764 44.7139 57.1445 45.641Z" fill="#FFA808"/>
<path d="M40.1043 48.9282C40.2934 49.8764 41.554 50.4242 42.9408 50.1503C44.3275 49.8764 45.3151 48.9071 45.126 47.9589C44.9369 47.0106 43.6762 46.4628 42.2894 46.7367C40.9027 47.0106 39.9152 47.9799 40.1043 48.9282Z" fill="#FFA808"/>
<path d="M53.2575 43.4707C53.2575 43.4707 50.2529 44.7561 50.2109 48.0432C50.1688 50.6772 52.1859 50.9722 52.9633 50.5086C55.8629 48.844 52.1019 44.9879 53.2575 43.4707Z" fill="#2F3A59"/>
<path d="M49.7485 51.1407C50.5889 52.6368 51.9967 53.4376 53.6776 53.0583C52.1858 54.5965 49.5804 53.2058 49.7485 51.1407Z" fill="#2F3A59"/>
<path d="M46.6598 8.26008C46.0715 8.97651 45.4202 9.62973 44.7478 10.2619C44.4536 10.5569 44.1385 10.8308 43.8653 11.1258C43.5081 11.484 43.319 11.8633 43.256 12.2005C43.193 12.5587 43.193 12.8958 43.214 13.2119C43.235 13.528 43.214 13.8019 43.1509 14.0337C43.0879 14.2655 42.8568 14.434 42.4786 14.5394C42.4155 14.5605 42.3735 14.5605 42.3105 14.5815C42.0583 14.6237 41.8062 14.5815 41.5121 14.4762C41.2179 14.3919 41.0498 14.1812 40.9868 13.844L40.9658 13.7808C40.8397 12.7273 40.9027 11.9055 41.1969 11.3576C41.47 10.8308 42.0373 10.1987 42.8568 9.46116L43.0249 9.29258C43.6342 8.76579 44.1595 8.17579 44.6427 7.56471C45.105 6.95364 45.3781 6.2372 45.4202 5.41541C45.4202 5.12041 45.3991 4.82541 45.3571 4.55148C45.2731 3.89826 45.063 3.28718 44.7478 2.73932C44.4116 2.21253 43.9704 1.95967 43.3821 1.95967L43.298 1.98074C42.7727 2.04396 42.2054 2.50753 41.6591 3.3504C41.2389 4.06683 41.0078 4.78327 41.0078 5.47863C40.9658 6.19506 40.9868 6.95364 41.0918 7.71221C41.1339 7.944 41.1549 8.19686 41.1549 8.44972C41.1759 8.78686 41.0708 9.01865 40.8187 9.10294C40.7346 9.14508 40.6506 9.16615 40.5665 9.16615C40.3985 9.18723 40.1883 9.14508 39.9572 9.0608C39.7261 8.97651 39.537 8.80794 39.4319 8.55508C39.3059 8.21793 39.2008 7.92293 39.1378 7.69114C39.0747 7.48043 39.0117 7.2065 38.9697 6.91149L38.9487 6.74292L38.8856 6.42685C38.8226 5.77363 38.8226 5.12041 38.9487 4.53041C39.2849 3.09754 39.9362 2.0861 40.9027 1.43288C41.5541 0.990381 42.2475 0.71645 42.9828 0.632164C43.298 0.590021 43.8443 0.590021 44.5587 0.695379C45.2731 0.758593 46.0085 1.24324 46.7649 2.12825C47.2481 2.71825 47.5423 3.47683 47.6474 4.40398C47.7104 4.86755 47.7104 5.37327 47.6894 5.90006C47.5843 6.78506 47.2481 7.54364 46.6598 8.26008ZM42.3315 16.5623C42.6257 16.5201 42.8988 16.5834 43.214 16.7309C43.5291 16.8784 43.7393 17.1523 43.7813 17.5737C43.8443 18.2059 43.6972 18.6273 43.3611 18.8802C43.1719 19.0277 42.9408 19.133 42.7307 19.1541C42.5836 19.1752 42.3735 19.1541 42.0794 19.0698C41.7852 19.0066 41.5961 18.7327 41.491 18.2691C41.491 18.2269 41.47 18.1848 41.47 18.1426C41.428 17.8898 41.47 17.5948 41.5541 17.2576C41.6381 16.9205 41.8482 16.7309 42.1424 16.6044C42.2054 16.5834 42.2685 16.5623 42.3315 16.5623Z" fill="#FFA808"/>
<path d="M46.6598 8.26008C46.0715 8.97651 45.4202 9.62973 44.7478 10.2619C44.4536 10.5569 44.1385 10.8308 43.8653 11.1258C43.5081 11.484 43.319 11.8633 43.256 12.2005C43.193 12.5587 43.193 12.8958 43.214 13.2119C43.235 13.528 43.214 13.8019 43.1509 14.0337C43.0879 14.2655 42.8568 14.434 42.4786 14.5394C42.4155 14.5605 42.3735 14.5605 42.3105 14.5815C42.0583 14.6237 41.8062 14.5815 41.5121 14.4762C41.2179 14.3919 41.0498 14.1812 40.9868 13.844L40.9658 13.7808C40.8397 12.7273 40.9027 11.9055 41.1969 11.3576C41.47 10.8308 42.0373 10.1987 42.8568 9.46116L43.0249 9.29258C43.6342 8.76579 44.1595 8.17579 44.6427 7.56471C45.105 6.95364 45.3781 6.2372 45.4202 5.41541C45.4202 5.12041 45.3991 4.82541 45.3571 4.55148C45.2731 3.89826 45.063 3.28718 44.7478 2.73932C44.4116 2.21253 43.9704 1.95967 43.3821 1.95967L43.298 1.98074C42.7727 2.04396 42.2054 2.50753 41.6591 3.3504C41.2389 4.06683 41.0078 4.78327 41.0078 5.47863C40.9658 6.19506 40.9868 6.95364 41.0918 7.71221C41.1339 7.944 41.1549 8.19686 41.1549 8.44972C41.1759 8.78686 41.0708 9.01865 40.8187 9.10294C40.7346 9.14508 40.6506 9.16615 40.5665 9.16615C40.3985 9.18723 40.1883 9.14508 39.9572 9.0608C39.7261 8.97651 39.537 8.80794 39.4319 8.55508C39.3059 8.21793 39.2008 7.92293 39.1378 7.69114C39.0747 7.48043 39.0117 7.2065 38.9697 6.91149L38.9487 6.74292L38.8856 6.42685C38.8226 5.77363 38.8226 5.12041 38.9487 4.53041C39.2849 3.09754 39.9362 2.0861 40.9027 1.43288C41.5541 0.990381 42.2475 0.71645 42.9828 0.632164C43.298 0.590021 43.8443 0.590021 44.5587 0.695379C45.2731 0.758593 46.0085 1.24324 46.7649 2.12825C47.2481 2.71825 47.5423 3.47683 47.6474 4.40398C47.7104 4.86755 47.7104 5.37327 47.6894 5.90006C47.5843 6.78506 47.2481 7.54364 46.6598 8.26008ZM42.3315 16.5623C42.6257 16.5201 42.8988 16.5834 43.214 16.7309C43.5291 16.8784 43.7393 17.1523 43.7813 17.5737C43.8443 18.2059 43.6972 18.6273 43.3611 18.8802C43.1719 19.0277 42.9408 19.133 42.7307 19.1541C42.5836 19.1752 42.3735 19.1541 42.0794 19.0698C41.7852 19.0066 41.5961 18.7327 41.491 18.2691C41.491 18.2269 41.47 18.1848 41.47 18.1426C41.428 17.8898 41.47 17.5948 41.5541 17.2576C41.6381 16.9205 41.8482 16.7309 42.1424 16.6044C42.2054 16.5834 42.2685 16.5623 42.3315 16.5623Z" fill="#FFA808"/>
<path d="M43.487 0.632147C43.7812 0.632147 44.1594 0.653219 44.6006 0.716434C45.315 0.779648 46.0504 1.26429 46.8068 2.1493C47.2901 2.73931 47.5842 3.49788 47.6893 4.42503C47.7523 4.88861 47.7523 5.39432 47.7313 5.92111C47.5842 6.78505 47.2691 7.54362 46.6808 8.26006C46.0924 8.97649 45.4411 9.62971 44.7687 10.2619C44.4746 10.5569 44.1594 10.8308 43.8862 11.1258C43.5291 11.484 43.34 11.8633 43.2769 12.2004C43.2139 12.5587 43.2139 12.8958 43.2349 13.2119C43.2559 13.528 43.2349 13.8019 43.1719 14.0337C43.1088 14.2655 42.8777 14.434 42.4995 14.5394C42.4365 14.5605 42.3944 14.5605 42.3314 14.5815C42.2684 14.5815 42.2053 14.6026 42.1423 14.6026C41.9532 14.6026 41.7641 14.5605 41.533 14.4762C41.2388 14.3919 41.0707 14.1812 41.0077 13.844L40.9867 13.7808C40.8606 12.7272 40.9237 11.9054 41.2178 11.3576C41.491 10.8308 42.0583 10.1986 42.8777 9.46114L43.0458 9.29257C43.6551 8.76578 44.1804 8.17577 44.6637 7.5647C45.1259 6.95362 45.3991 6.23719 45.4411 5.4154C45.4411 5.12039 45.4201 4.82539 45.3781 4.55146C45.294 3.89824 45.0839 3.28717 44.7687 2.73931C44.4325 2.21252 44.0123 1.95966 43.466 1.95966H43.403L43.3189 1.98073C42.7937 2.04394 42.2264 2.50752 41.6801 3.35038C41.2598 4.06681 41.0287 4.78325 41.0287 5.47861C40.9867 6.19504 41.0077 6.95362 41.1128 7.7122C41.1548 7.94398 41.1758 8.19684 41.1758 8.4497C41.1968 8.78685 41.0917 9.01863 40.8396 9.10292C40.7556 9.14506 40.6715 9.16614 40.5875 9.16614H40.5034C40.3563 9.16614 40.1883 9.12399 39.9781 9.06078C39.747 8.97649 39.5579 8.80792 39.4529 8.55506C39.3268 8.21791 39.2217 7.92291 39.1587 7.69113C39.0957 7.48041 39.0326 7.20648 38.9906 6.91148L38.9696 6.72183L38.9066 6.40576C38.8435 5.75254 38.8435 5.09932 38.9696 4.50932C39.3058 3.07645 39.9571 2.06501 40.9237 1.4118C41.575 0.969293 42.2684 0.695362 43.0038 0.611076C43.1509 0.632147 43.2979 0.632147 43.487 0.632147ZM42.4995 16.5412C42.7306 16.5412 42.9618 16.6044 43.2139 16.7098C43.5291 16.8573 43.7392 17.1312 43.7812 17.5526C43.8442 18.1848 43.6971 18.6062 43.361 18.8591C43.1719 19.0066 42.9407 19.1119 42.7306 19.133H42.6256C42.4995 19.133 42.3104 19.1119 42.1003 19.0276C41.8061 18.9644 41.617 18.6905 41.512 18.2269C41.512 18.1848 41.491 18.1426 41.491 18.1005C41.4489 17.8476 41.491 17.5526 41.575 17.2155C41.659 16.8783 41.8692 16.6887 42.1633 16.5623C42.2053 16.5412 42.2684 16.5201 42.3314 16.5201C42.3944 16.5623 42.4365 16.5412 42.4995 16.5412ZM43.487 0C43.2769 0 43.1088 0 42.9407 0.0210716C42.1003 0.126429 41.3439 0.421432 40.5875 0.927149C39.4949 1.66465 38.7595 2.82359 38.3813 4.40396V4.4461C38.2552 5.09932 38.2342 5.79468 38.3182 6.53219V6.57433L38.3603 6.86933L38.3813 7.03791C38.4233 7.37505 38.4863 7.67005 38.5704 7.90184C38.6334 8.1547 38.7385 8.42863 38.8435 8.7447L38.8645 8.80792L38.8856 8.85006L38.9066 8.87113C39.0957 9.25042 39.3898 9.52435 39.789 9.67185C40.0622 9.77721 40.2933 9.81936 40.5244 9.81936H40.7135C40.8186 9.79828 40.9237 9.77721 41.0707 9.714C41.3229 9.62971 41.8692 9.31364 41.8061 8.42863C41.7851 8.17577 41.7641 7.90184 41.7221 7.64898C41.638 6.99576 41.596 6.27933 41.638 5.54182C41.659 4.97289 41.8481 4.36182 42.2053 3.72967C42.6256 3.07645 43.0458 2.69716 43.403 2.65502H43.487C43.7182 2.65502 43.9703 2.71823 44.2434 3.11859C44.5166 3.5611 44.6847 4.08789 44.7687 4.67789C44.7897 4.90968 44.8107 5.16254 44.8107 5.43647C44.7897 6.11076 44.5586 6.70076 44.1804 7.20648C43.6971 7.81756 43.1929 8.34434 42.6256 8.85006L42.6046 8.87113L42.5835 8.89221L42.4155 9.06078C41.491 9.88257 40.9237 10.5569 40.6295 11.1258C40.2933 11.779 40.1883 12.6851 40.3353 13.9072V13.9915L40.3563 14.0547C40.4824 14.6026 40.8186 14.9819 41.3019 15.1294C41.596 15.2348 41.8692 15.2769 42.1213 15.2769C42.2053 15.2769 42.3104 15.2769 42.3944 15.2558H42.4575L42.4995 15.2348C42.5415 15.2348 42.5835 15.2137 42.6676 15.1926C43.2559 15.024 43.6341 14.708 43.7602 14.2655V14.2233C43.8232 13.9283 43.8442 13.6122 43.8232 13.2119V13.1697C43.8022 12.9379 43.8022 12.664 43.8652 12.3269C43.9073 12.1162 44.0543 11.8422 44.2855 11.6104C44.5376 11.3365 44.8318 11.0626 45.1259 10.7886C45.8823 10.0933 46.5127 9.41899 47.101 8.72363C47.7313 7.96506 48.1305 7.08005 48.2986 6.06861V6.02647C48.3406 5.47861 48.3196 4.95182 48.2566 4.40396C48.1305 3.37145 47.7944 2.48645 47.227 1.79108C46.3656 0.779648 45.5041 0.231787 44.6216 0.147501C44.2434 0.0210716 43.8442 0 43.487 0ZM42.4995 15.909C42.4365 15.909 42.3524 15.909 42.2894 15.9301C42.1633 15.9301 42.0373 15.9723 41.9322 16.0144C41.4489 16.204 41.1128 16.5623 40.9657 17.068C40.8606 17.4894 40.8186 17.8476 40.8606 18.1848C40.8606 18.2269 40.8606 18.2691 40.8816 18.2901V18.3112L40.9026 18.3744C41.1128 19.2383 41.575 19.5544 41.9322 19.6387C42.1843 19.723 42.4365 19.7651 42.6466 19.7651H42.8147C43.1298 19.7441 43.424 19.5966 43.7392 19.3859C44.2645 18.9855 44.4956 18.3744 44.4325 17.5105V17.4683C44.3275 16.6676 43.8652 16.2883 43.487 16.1198C43.1298 15.9933 42.8147 15.909 42.4995 15.909Z" fill="#2F3A59"/>
<path d="M55.7998 12.9379C55.0644 13.2751 54.308 13.549 53.5306 13.7808C53.1734 13.8862 52.8372 13.9915 52.5221 14.1179C52.1018 14.2654 51.8077 14.4762 51.6396 14.729C51.4505 14.9819 51.3244 15.2558 51.2194 15.5087C51.1143 15.7615 50.9882 15.9722 50.8622 16.1408C50.7151 16.2883 50.4629 16.3305 50.1268 16.2672C50.0847 16.2672 50.0427 16.2462 49.9797 16.2251C49.7696 16.1619 49.5805 16.0355 49.3914 15.8247C49.2023 15.6351 49.1392 15.4033 49.2023 15.1294L49.2233 15.0662C49.5174 14.1812 49.8956 13.5701 50.3369 13.254C50.7571 12.9379 51.4505 12.664 52.375 12.3901L52.5851 12.3269C53.2785 12.1372 53.9088 11.8844 54.5181 11.5894C55.1275 11.2944 55.6107 10.8308 55.9469 10.1776C56.073 9.94578 56.157 9.71399 56.2411 9.4822C56.4302 8.93434 56.4932 8.36541 56.4512 7.81755C56.3881 7.26969 56.136 6.8904 55.6737 6.67968L55.5897 6.65861C55.1485 6.51111 54.5391 6.65861 53.7617 7.12219C53.1734 7.52255 52.7112 8.00719 52.417 8.55505C52.1228 9.10291 51.8497 9.71399 51.6396 10.3672C51.5765 10.5569 51.4925 10.7676 51.4085 10.9783C51.2824 11.2522 51.1143 11.3997 50.8832 11.3786C50.7991 11.3786 50.7361 11.3576 50.652 11.3365C50.505 11.2733 50.3579 11.189 50.2108 11.0204C50.0637 10.8519 49.9797 10.6622 49.9797 10.4094C50.0007 10.0933 50.0427 9.81935 50.0847 9.6297C50.1057 9.44006 50.1688 9.20827 50.2528 8.95541L50.3159 8.80791C50.3369 8.72363 50.3789 8.61827 50.3999 8.53398C50.589 7.98612 50.8622 7.4804 51.1563 7.05897C51.9758 6.04754 52.8582 5.49967 53.8668 5.35217C54.5601 5.24682 55.1905 5.31003 55.7998 5.52075C56.073 5.6261 56.4932 5.81575 57.0185 6.17396C57.5648 6.51111 57.943 7.16433 58.2161 8.15469C58.3632 8.80791 58.3212 9.52435 58.048 10.2829C57.922 10.6622 57.7329 11.0836 57.5017 11.484C57.0815 12.1161 56.5352 12.6008 55.7998 12.9379ZM49.2023 17.8265C49.4334 17.9108 49.6435 18.0583 49.8536 18.2901C50.0427 18.5219 50.1057 18.8169 49.9797 19.1751C49.7906 19.6808 49.4964 19.9758 49.1392 20.0391C48.9291 20.0812 48.719 20.0812 48.5509 20.018C48.4248 19.9758 48.2778 19.8705 48.0677 19.7019C47.8786 19.5333 47.8155 19.2383 47.8996 18.838C47.9206 18.8169 47.9206 18.7537 47.9416 18.7326C48.0046 18.5219 48.1517 18.2901 48.3408 18.0794C48.5299 17.8687 48.761 17.7633 49.0552 17.8055C49.0972 17.7844 49.1602 17.8055 49.2023 17.8265Z" fill="#FFA808"/>
<path d="M55.7998 12.9379C55.0644 13.2751 54.308 13.549 53.5306 13.7808C53.1734 13.8862 52.8372 13.9915 52.5221 14.1179C52.1018 14.2654 51.8077 14.4762 51.6396 14.729C51.4505 14.9819 51.3244 15.2558 51.2194 15.5087C51.1143 15.7615 50.9882 15.9722 50.8622 16.1408C50.7151 16.2883 50.4629 16.3305 50.1268 16.2672C50.0847 16.2672 50.0427 16.2462 49.9797 16.2251C49.7696 16.1619 49.5805 16.0355 49.3914 15.8247C49.2023 15.6351 49.1392 15.4033 49.2023 15.1294L49.2233 15.0662C49.5174 14.1812 49.8956 13.5701 50.3369 13.254C50.7571 12.9379 51.4505 12.664 52.375 12.3901L52.5851 12.3269C53.2785 12.1372 53.9088 11.8844 54.5181 11.5894C55.1275 11.2944 55.6107 10.8308 55.9469 10.1776C56.073 9.94578 56.157 9.71399 56.2411 9.4822C56.4302 8.93434 56.4932 8.36541 56.4512 7.81755C56.3881 7.26969 56.136 6.8904 55.6737 6.67968L55.5897 6.65861C55.1485 6.51111 54.5391 6.65861 53.7617 7.12219C53.1734 7.52255 52.7112 8.00719 52.417 8.55505C52.1228 9.10291 51.8497 9.71399 51.6396 10.3672C51.5765 10.5569 51.4925 10.7676 51.4085 10.9783C51.2824 11.2522 51.1143 11.3997 50.8832 11.3786C50.7991 11.3786 50.7361 11.3576 50.652 11.3365C50.505 11.2733 50.3579 11.189 50.2108 11.0204C50.0637 10.8519 49.9797 10.6622 49.9797 10.4094C50.0007 10.0933 50.0427 9.81935 50.0847 9.6297C50.1057 9.44006 50.1688 9.20827 50.2528 8.95541L50.3159 8.80791C50.3369 8.72363 50.3789 8.61827 50.3999 8.53398C50.589 7.98612 50.8622 7.4804 51.1563 7.05897C51.9758 6.04754 52.8582 5.49967 53.8668 5.35217C54.5601 5.24682 55.1905 5.31003 55.7998 5.52075C56.073 5.6261 56.4932 5.81575 57.0185 6.17396C57.5648 6.51111 57.943 7.16433 58.2161 8.15469C58.3632 8.80791 58.3212 9.52435 58.048 10.2829C57.922 10.6622 57.7329 11.0836 57.5017 11.484C57.0815 12.1161 56.5352 12.6008 55.7998 12.9379ZM49.2023 17.8265C49.4334 17.9108 49.6435 18.0583 49.8536 18.2901C50.0427 18.5219 50.1057 18.8169 49.9797 19.1751C49.7906 19.6808 49.4964 19.9758 49.1392 20.0391C48.9291 20.0812 48.719 20.0812 48.5509 20.018C48.4248 19.9758 48.2778 19.8705 48.0677 19.7019C47.8786 19.5333 47.8155 19.2383 47.8996 18.838C47.9206 18.8169 47.9206 18.7537 47.9416 18.7326C48.0046 18.5219 48.1517 18.2901 48.3408 18.0794C48.5299 17.8687 48.761 17.7633 49.0552 17.8055C49.0972 17.7844 49.1602 17.8055 49.2023 17.8265Z" fill="#FFA808"/>
<path d="M56.199 5.68932C56.4301 5.79468 56.7243 5.96325 57.0394 6.17397C57.5857 6.51111 57.9639 7.16433 58.2371 8.1547C58.3842 8.80792 58.3421 9.52435 58.069 10.2829C57.9429 10.6622 57.7538 11.0836 57.5227 11.484C57.0815 12.1162 56.5352 12.6008 55.7998 12.9379C55.0644 13.2751 54.308 13.549 53.5306 13.7808C53.1734 13.8862 52.8372 13.9915 52.522 14.118C52.1018 14.2655 51.8076 14.4762 51.6395 14.729C51.4504 14.9819 51.3244 15.2558 51.2193 15.5087C51.1142 15.7615 50.9882 15.9723 50.8621 16.1408C50.715 16.2883 50.4629 16.3305 50.1267 16.2673C50.0847 16.2673 50.0427 16.2462 49.9796 16.2251C49.9166 16.204 49.8746 16.183 49.8326 16.1619C49.6855 16.0987 49.5384 15.9723 49.3913 15.8248C49.2022 15.6351 49.1392 15.4033 49.2022 15.1294L49.2232 15.0662C49.5174 14.1812 49.8956 13.5701 50.3368 13.254C50.7571 12.9379 51.4504 12.664 52.3749 12.3901L52.585 12.3269C53.2784 12.1372 53.9088 11.8844 54.5181 11.5894C55.1274 11.2944 55.6107 10.8308 55.9468 10.1776C56.0729 9.94578 56.157 9.71399 56.241 9.48221C56.4301 8.93435 56.4931 8.36541 56.4511 7.81755C56.3881 7.29076 56.157 6.91147 55.7157 6.70076C55.6947 6.70076 55.6947 6.67969 55.6737 6.67969L55.5897 6.65861C55.1484 6.51111 54.5391 6.65861 53.7617 7.12219C53.1734 7.52255 52.7111 8.0072 52.4169 8.55506C52.1228 9.10292 51.8496 9.71399 51.6395 10.3672C51.5765 10.5569 51.4925 10.7676 51.4084 10.9783C51.2823 11.2522 51.1142 11.3997 50.8831 11.3786C50.7991 11.3786 50.736 11.3576 50.652 11.3365C50.631 11.3365 50.61 11.3154 50.589 11.3154C50.4629 11.2522 50.3578 11.1679 50.2318 11.0204C50.0847 10.8519 50.0006 10.6622 50.0006 10.4094C50.0217 10.0933 50.0637 9.81935 50.1057 9.62971C50.1267 9.44006 50.1898 9.20828 50.2738 8.95542L50.3368 8.80792C50.3578 8.72363 50.3999 8.61827 50.4209 8.53399C50.61 7.98612 50.8831 7.48041 51.1773 7.05897C51.9967 6.04754 52.8792 5.49968 53.8877 5.35218C54.5811 5.24682 55.2115 5.31003 55.8208 5.52075C55.9258 5.56289 56.0519 5.62611 56.199 5.68932ZM49.3493 17.8898C49.5384 17.9741 49.6855 18.1216 49.8536 18.3112C50.0427 18.543 50.1057 18.838 49.9796 19.1962C49.7905 19.7019 49.4964 19.9969 49.1392 20.0601C48.9291 20.1023 48.719 20.1023 48.5509 20.0391C48.5299 20.0391 48.4878 20.018 48.4668 19.9969C48.3618 19.9548 48.2357 19.8494 48.0886 19.723C47.8995 19.5544 47.8365 19.2594 47.9205 18.8591C47.9415 18.838 47.9415 18.7748 47.9626 18.7537C48.0256 18.543 48.1727 18.3112 48.3618 18.1005C48.5509 17.8898 48.782 17.7844 49.0762 17.8266C49.1182 17.8266 49.1812 17.8476 49.2232 17.8687C49.2653 17.8476 49.3073 17.8687 49.3493 17.8898ZM56.4511 5.20468C56.283 5.12039 56.157 5.05717 56.0099 5.01503C55.3165 4.78324 54.6021 4.72003 53.8037 4.82539C52.6691 4.97289 51.6395 5.62611 50.736 6.72183V6.76397C50.3999 7.22755 50.1057 7.77541 49.8956 8.38648V8.42863L49.8115 8.68149L49.7695 8.80792C49.6855 9.08185 49.6224 9.33471 49.5804 9.56649C49.5384 9.79828 49.4964 10.0511 49.4754 10.3461V10.4304C49.4754 10.8097 49.6014 11.1469 49.8536 11.3997C50.0217 11.5894 50.1898 11.7158 50.3789 11.8001C50.4209 11.8212 50.4629 11.8422 50.5049 11.8633H50.5469C50.631 11.8844 50.736 11.9054 50.8621 11.9265C51.0932 11.9476 51.6395 11.9054 51.9337 11.189C52.0177 10.9783 52.1018 10.7676 52.1648 10.5358C52.3539 9.98792 52.585 9.39792 52.9002 8.82899C53.1313 8.38648 53.5095 7.96505 54.0348 7.60684C54.6231 7.24862 55.1064 7.12219 55.3795 7.20648H55.4426C55.6317 7.29076 55.7998 7.43826 55.8628 7.85969C55.9048 8.3022 55.8418 8.78684 55.6737 9.29256C55.6107 9.48221 55.5266 9.69292 55.4216 9.90364C55.1484 10.4094 54.7492 10.8097 54.2449 11.0626C53.6356 11.3576 53.0263 11.5894 52.3959 11.7579H52.3539L52.1648 11.8212C51.1142 12.1162 50.4209 12.4322 49.9586 12.7694C49.4333 13.1487 49.0131 13.844 48.6559 14.8555L48.6349 14.8976V14.9397L48.6139 15.003C48.5088 15.4665 48.6139 15.909 48.9501 16.2251C49.1392 16.4148 49.3283 16.5623 49.5384 16.6676C49.6014 16.7098 49.6855 16.7308 49.7695 16.7519L49.8115 16.773H49.8326C49.8536 16.773 49.9166 16.794 49.9796 16.8151C50.5049 16.8994 50.9251 16.794 51.1983 16.5201L51.2193 16.499L51.2403 16.478C51.4084 16.2673 51.5555 16.0144 51.6816 15.7194V15.6773C51.7446 15.4876 51.8707 15.2769 52.0177 15.024C52.1228 14.8555 52.3539 14.708 52.6271 14.6237C52.9422 14.4972 53.2784 14.3919 53.6146 14.2865C54.4761 14.0337 55.2325 13.7387 55.9468 13.4015C56.7453 13.0433 57.3756 12.4954 57.9009 11.779L57.9219 11.7579L57.9429 11.7369C58.174 11.3154 58.3842 10.894 58.5312 10.4515C58.8254 9.58756 58.8884 8.76577 58.7203 8.0072C58.4262 6.86933 57.9639 6.11075 57.2916 5.71039C57.0184 5.49968 56.7243 5.33111 56.4511 5.20468ZM49.5804 17.384C49.5174 17.363 49.4544 17.3208 49.4123 17.2998C49.3073 17.2576 49.2022 17.2365 49.0972 17.2365C48.6349 17.1944 48.2357 17.363 47.9415 17.7001C47.6894 17.9741 47.5213 18.2691 47.4373 18.5219C47.4163 18.5641 47.4163 18.5851 47.4163 18.6062V18.6273L47.3952 18.6905C47.2272 19.4491 47.4793 19.8705 47.7314 20.0812C47.8995 20.2498 48.0676 20.3762 48.2357 20.4394C48.2777 20.4605 48.3197 20.4816 48.3828 20.5026C48.6349 20.5869 48.9291 20.608 49.2653 20.5448C49.8326 20.4394 50.2528 20.0391 50.5259 19.3226C50.7571 18.6483 50.5259 18.1848 50.2948 17.9108C50.0637 17.6791 49.8326 17.5105 49.5804 17.384Z" fill="#2F3A59"/>
</g>
<defs>
<clipPath id="clip0_109_293">
<rect width="91" height="96" fill="white"/>
</clipPath>
</defs>
</svg>
