<svg width="447" height="430" viewBox="0 0 447 430" fill="none" xmlns="http://www.w3.org/2000/svg">
<g clip-path="url(#clip0_322_625)">
<path d="M433.61 254.29C399.11 217.19 400.41 194.79 408.81 178.09C417.21 161.39 439.61 115.29 425.21 66.59C414.11 28.79 342.21 -21.21 287.21 9.59C232.21 40.39 237.61 20.99 183.51 5.69C129.51 -9.51 75.41 16.99 62.81 51.39C43.41 104.39 100.31 139.89 42.81 176.59C-6.48999 200.19 -24.99 307.79 52.11 343.89C129.21 379.99 125.61 329.29 190.11 342.49C254.61 355.79 228.31 356.19 329.31 374.59C430.31 393.09 468.11 291.29 433.61 254.29ZM33.21 276.79C32.81 280.19 30.51 282.59 28.01 282.29C25.51 281.99 23.81 279.09 24.21 275.69C24.61 272.29 26.91 269.89 29.41 270.09C31.91 270.49 33.61 273.39 33.21 276.79ZM42.61 247.49C39.81 255.29 32.81 259.89 27.01 257.79C21.21 255.69 18.81 247.69 21.71 239.89C24.51 232.09 31.51 227.49 37.31 229.59C43.01 231.69 45.41 239.69 42.61 247.49ZM124.91 55.39C116.81 60.59 107.01 59.89 103.21 53.89C99.31 47.89 102.81 38.79 111.01 33.59C119.21 28.39 128.91 29.09 132.71 35.09C136.51 41.09 133.01 50.19 124.91 55.39ZM152.51 46.79C148.71 49.19 144.21 48.89 142.41 46.09C140.61 43.29 142.21 38.99 146.01 36.59C149.81 34.19 154.31 34.49 156.11 37.29C157.91 40.09 156.31 44.39 152.51 46.79ZM325.01 68.69C321.41 73.89 312.71 74.19 305.71 69.29C298.71 64.39 295.91 56.19 299.51 50.99C303.11 45.79 311.81 45.49 318.81 50.39C325.81 55.29 328.61 63.49 325.01 68.69ZM395.71 103.99C383.01 113.29 362.41 106.89 349.91 89.69C337.31 72.49 337.51 50.99 350.21 41.69C362.91 32.39 383.51 38.79 396.01 56.09C408.61 73.19 408.51 94.69 395.71 103.99Z" fill="#FFA808" fill-opacity="0.15"/>
<path d="M359.11 185.29C350.51 172.99 340.61 165.89 333.11 166.79H332.91C325.41 167.99 325.81 177.69 327.21 191.29C328.31 202.49 329.41 213.09 323.21 217.09C321.81 217.89 320.41 218.69 319.01 219.29L318.51 219.49L318.71 219.99C319.01 220.59 319.21 221.09 319.51 221.69C319.81 222.29 320.01 222.79 320.31 223.39C324.61 232.59 328.11 240.39 331.21 248.19C331.51 249.19 332.01 250.29 332.61 251.79C334.81 257.39 337.11 263.59 339.51 270.69L339.61 271.09L340.01 270.99C354.21 267.89 364.11 261.09 369.61 250.89C380.31 231.19 371.61 203.09 359.11 185.29Z" fill="#E8EFFE"/>
<path d="M369.51 250.19C378.01 234.69 374.31 213.99 366.21 197.19C367.51 210.49 365.01 237.69 345.61 239.39C327.81 240.99 324.91 222.19 324.41 215.79C324.01 216.29 323.41 216.79 322.81 217.09C321.41 217.99 320.01 218.79 318.51 219.39C319.11 220.49 319.61 221.69 320.21 222.79C324.01 230.69 327.71 239.09 331.21 247.59C331.71 248.69 332.21 249.89 332.61 251.09C335.11 257.29 337.41 263.59 339.61 270.09C354.01 267.09 363.91 260.49 369.51 250.19Z" fill="#D3E1F8"/>
<path d="M372.31 252.39C369.81 257.19 365.61 262.39 359.01 266.69C353.01 270.59 346.81 272.59 341.01 273.49C339.81 273.69 338.61 273.89 337.51 273.89C326.61 274.99 318.51 272.49 318.51 272.49C325.11 272.59 331.21 272.19 336.61 271.19C337.81 270.99 338.91 270.79 340.01 270.59C354.01 267.49 363.81 260.99 369.21 250.69C379.61 231.19 371.11 203.29 358.91 185.49C350.51 173.29 340.71 166.29 333.31 167.29C326.11 168.19 326.41 177.49 327.81 191.29C328.91 202.69 330.01 213.39 323.51 217.59C322.11 218.49 320.71 219.19 319.31 219.89C318.31 220.39 317.21 220.79 316.11 221.19C297.61 227.49 275.91 217.79 274.71 217.29C276.11 217.69 297.11 224.39 314.51 218.19C315.61 217.79 316.61 217.39 317.71 216.89C319.01 216.29 320.31 215.59 321.51 214.79C326.21 211.79 325.11 201.59 324.31 191.79C323.11 179.39 321.71 165.39 332.91 163.99C341.61 162.89 352.51 170.19 361.71 183.69C374.61 202.09 383.41 231.59 372.31 252.39Z" fill="#2F3A59"/>
<path d="M80.01 383.09C63.61 389.69 84.81 407.19 87.91 406.89C99.81 406.19 102.91 412.99 134.71 406.29C141.31 404.89 154.31 404.09 166.51 408.49C178.51 412.79 186.31 418.79 196.61 422.49C210.71 427.49 220.31 430.59 230.91 426.79C244.01 421.99 241.91 427.59 268.81 411.09C307.41 387.49 336.11 422.19 347.91 416.99C362.71 410.59 360.21 378.49 353.31 354.89C346.31 241.59 271.61 146.19 263.11 135.49L263.01 135.29C227.51 91.19 163.41 82.29 117.21 115.09C71.21 147.59 58.21 210.69 87.61 258.69C94.51 269.89 99.01 281.19 101.31 292.49C105.51 314.09 105.31 347.19 80.51 382.59C80.21 382.69 80.21 382.79 80.01 383.09Z" fill="#E8EFFE"/>
<path d="M78.61 381.49C103.41 346.09 104.21 314.39 100.01 292.79C97.81 281.59 93.21 270.19 86.31 258.99C57.01 210.89 70.01 147.79 115.91 115.29C125.71 108.29 136.21 103.39 147.11 100.09C146.01 101.09 80.51 132.09 112.71 225.49C133.61 285.99 183.21 331.29 148.91 406.49C136.01 407.09 107.61 408.99 94.71 409.79C91.61 409.99 61.71 393.99 78.91 383.29C79.21 383.09 79.21 382.89 79.21 382.89L78.61 381.49Z" fill="#D3E1F8"/>
<path d="M107.21 411.19C111.01 401.69 111.51 391.29 109.31 381.39C110.41 390.89 108.71 401.09 104.11 409.59L107.21 411.19Z" fill="#2F3A59"/>
<path d="M97.11 410.29C99.51 403.89 99.21 396.89 98.91 390.29C98.11 396.49 97.21 403.09 94.11 408.59L97.11 410.29Z" fill="#2F3A59"/>
<path d="M292.41 403.49C292.11 393.29 295.01 383.29 300.41 374.79C296.21 383.39 294.41 393.49 295.81 403.09L292.41 403.49Z" fill="#2F3A59"/>
<path d="M302.41 404.29C302.41 397.39 304.91 391.09 307.51 384.79C306.11 390.89 304.81 397.49 305.81 403.69L302.41 404.29Z" fill="#2F3A59"/>
<path d="M194.21 96.89C220.51 100.49 245.51 113.69 263.31 135.89L263.41 136.09C370.11 268.29 357.81 404.49 357.71 404.49L350.51 414.39C359.01 293.79 296.01 185.99 259.61 139.89C237.01 111.09 212.71 100.39 194.21 96.89Z" fill="white"/>
<path d="M321.11 266.29C324.31 273.29 329.81 277.69 333.51 275.99C337.21 274.29 337.61 267.29 334.41 260.19C331.21 253.19 325.71 248.79 322.01 250.49C318.41 252.19 318.01 259.29 321.11 266.29Z" fill="white"/>
<path d="M331.21 289.39C332.91 294.59 336.61 298.09 339.41 297.19C342.11 296.29 342.91 291.29 341.21 286.09C339.51 280.89 335.81 277.39 333.01 278.29C330.21 279.19 329.41 284.09 331.21 289.39Z" fill="white"/>
<path d="M357.51 358.29C357.51 358.29 353.91 356.69 353.81 355.89C352.01 326.99 345.81 299.39 337.51 273.89L336.61 271.19C334.71 265.39 332.61 259.69 330.41 254.09C329.91 252.99 329.41 251.79 329.01 250.59C324.91 240.19 320.51 230.29 316.01 220.99C315.51 219.99 315.01 218.89 314.51 217.99C292.21 172.79 268.01 141.79 263.31 135.99L263.21 135.79C227.71 91.69 163.61 82.79 117.41 115.59C71.41 148.09 58.41 211.19 87.81 259.19C94.71 270.39 99.31 281.79 101.51 292.99C105.71 314.39 105.61 347.19 81.21 382.29L77.91 380.99C102.11 346.59 102.21 314.59 98.11 293.59C95.91 282.79 91.51 271.79 84.91 260.89C54.51 211.29 68.01 146.19 115.51 112.59C160.11 80.99 220.71 86.89 258.41 124.99C259.61 126.09 260.71 127.29 261.81 128.49C263.31 130.09 264.71 131.79 266.11 133.49L266.21 133.69C267.91 135.89 272.21 141.39 278.21 149.69C278.81 150.59 279.61 151.59 280.31 152.59C290.41 167.19 304.51 189.29 317.91 216.39C318.31 217.29 318.81 218.19 319.21 219.09C319.21 219.19 319.31 219.29 319.31 219.39C319.91 220.49 320.41 221.69 320.91 222.79C324.61 230.69 328.21 239.09 331.81 247.59C332.31 248.69 332.81 249.89 333.21 251.09C335.71 257.29 338.01 263.59 340.21 270.09C340.51 271.09 340.81 271.99 341.11 272.99C349.61 299.69 355.91 328.39 357.51 358.29Z" fill="#2F3A59"/>
<path d="M73.71 395.19C72.31 392.59 72.31 389.49 73.81 386.89L78.41 380.29L82.21 380.79L81.21 382.39L76.81 388.59C75.91 390.09 75.91 391.89 76.71 393.49C86.11 411.39 108.91 409.59 140.01 405.09C159.71 402.29 168.41 407.09 179.51 413.09C186.91 417.09 195.31 421.79 209.01 424.99C230.71 430.09 248.21 420.89 263.71 412.79C272.11 408.39 280.11 404.19 288.11 402.49C306.31 398.49 323.21 406.09 334.41 411.19C337.61 412.59 340.41 413.89 342.41 414.49C344.61 415.19 347.01 414.69 349.51 412.99C354.41 409.79 357.11 403.89 356.81 397.69C356.31 389.09 355.01 370.09 354.01 356.09C353.51 350.39 353.31 346.49 352.91 343.09L356.31 343.59C357.71 355.39 359.51 385.19 360.31 397.39C360.71 404.59 357.61 411.49 351.91 415.39C351.71 415.49 351.51 415.69 351.41 415.79C348.01 417.99 344.71 418.69 341.41 417.59C339.21 416.89 336.31 415.59 333.01 414.09C322.21 409.19 306.01 401.79 288.91 405.59C281.31 407.29 273.51 411.29 265.31 415.59C249.31 423.89 231.21 433.49 208.21 428.09C194.01 424.79 185.41 420.09 177.81 415.99C167.31 410.19 159.01 405.69 140.51 408.39C108.11 413.39 84.31 415.19 73.71 395.19Z" fill="#2F3A59"/>
<path d="M205.41 328.39C205.41 328.39 226.51 360.39 261.81 348.79C297.11 337.09 280.11 282.89 280.11 282.89C280.11 282.89 281.91 325.69 254.21 335.09C226.61 344.59 205.41 328.39 205.41 328.39Z" fill="#D3E1F8"/>
<path d="M244.91 339.69C222.41 343.19 205.41 328.39 205.41 328.39C228.81 339.29 247.41 339.59 260.71 329.29C278.21 315.79 281.81 286.79 277.91 265.59C275.21 250.99 269.11 240.59 262.01 238.49C255.01 236.39 251.61 244.99 247.11 258.19C243.51 269.09 240.01 279.19 232.51 280.39C209.01 283.99 188.11 260.19 188.11 260.19C188.31 260.39 210.11 280.39 232.01 277.09C237.51 276.29 240.71 266.59 243.91 257.19C247.91 245.39 252.31 231.99 263.11 235.19C271.61 237.69 278.51 248.89 281.41 264.99C285.51 287.19 281.51 317.69 263.01 332.19C258.61 335.39 252.71 338.49 244.91 339.69Z" fill="#2F3A59"/>
<path d="M250.51 179.39C252.71 183.49 259.51 184.09 265.61 180.69C271.71 177.29 274.71 171.29 272.41 167.19C270.21 163.09 263.41 162.49 257.31 165.89C251.21 169.19 248.21 175.29 250.51 179.39Z" fill="#FFA808"/>
<path d="M176.11 220.69C178.31 224.79 185.11 225.39 191.21 221.99C197.31 218.59 200.31 212.59 198.01 208.49C195.81 204.39 189.01 203.79 182.91 207.19C176.81 210.59 173.81 216.59 176.11 220.69Z" fill="#FFA808"/>
<path d="M253.01 158.09L230.81 164.59L243.91 144.59L238.91 158.59L253.01 158.09Z" fill="#2F3A59"/>
<path d="M178.71 199.39L195.81 183.99L171.91 184.49L186.51 187.69L178.71 199.39Z" fill="#2F3A59"/>
<path d="M244.81 216.89C244.81 216.89 247.61 214.49 255.31 216.39C263.11 218.39 264.21 207.89 261.81 200.29C259.31 192.79 246.21 177.09 230.91 182.09C215.61 187.09 205.61 214.29 210.31 232.99C215.01 251.69 236.61 249.29 238.01 241.09C239.61 232.79 240.01 220.99 244.81 216.89Z" fill="#2F3A59"/>
</g>
<defs>
<clipPath id="clip0_322_625">
<rect width="446.09" height="429.66" fill="white"/>
</clipPath>
</defs>
</svg>
