<svg width="16" height="16" viewBox="0 0 16 16" fill="none" xmlns="http://www.w3.org/2000/svg">
<g clip-path="url(#clip0_657_884)">
<path d="M13.3333 6.66667H13.2567C13.3492 6.36219 13.3701 6.04047 13.3178 5.72658C13.2656 5.41269 13.1416 5.1151 12.9554 4.85702C12.7693 4.59893 12.526 4.38731 12.2447 4.23866C11.9633 4.09001 11.6514 4.00833 11.3333 4H2C-1.634 4.248 0.666667 9.76733 1.60733 11.2747C2.02918 11.9137 2.60435 12.4369 3.28035 12.7965C3.95636 13.1561 4.71167 13.3407 5.47733 13.3333H7.85534C8.60862 13.3402 9.352 13.1613 10.0197 12.8125C10.6874 12.4637 11.2588 11.9556 11.6833 11.3333H13.3333C16.5427 11.2713 17.1727 6.548 13.3333 6.66667ZM7.85534 12H5.47733C4.93345 12.0073 4.39641 11.8782 3.91531 11.6244C3.43421 11.3707 3.02439 11.0004 2.72333 10.5473C2.36067 10.2 0.329333 5.33333 2 5.33333H11.3333C11.4251 5.33303 11.5158 5.35219 11.5996 5.38954C11.6834 5.42689 11.7583 5.48158 11.8193 5.55C11.8843 5.62159 11.9334 5.70613 11.9634 5.79805C11.9934 5.88997 12.0036 5.98719 11.9933 6.08333C11.618 8.92267 10.912 11.874 7.85534 12ZM13.3333 10H12.392C12.6661 9.35468 12.879 8.68508 13.028 8C13.834 7.946 14.7253 8.144 14.6667 8.762C14.645 9.09977 14.4947 9.41638 14.2467 9.64668C13.9987 9.87697 13.6718 10.0034 13.3333 10ZM6.01667 2V0.666667C6.01667 0.489856 6.08691 0.320286 6.21193 0.195262C6.33695 0.0702379 6.50652 0 6.68334 0C6.86015 0 7.02972 0.0702379 7.15474 0.195262C7.27976 0.320286 7.35 0.489856 7.35 0.666667V2C7.35 2.17681 7.27976 2.34638 7.15474 2.4714C7.02972 2.59643 6.86015 2.66667 6.68334 2.66667C6.50652 2.66667 6.33695 2.59643 6.21193 2.4714C6.08691 2.34638 6.01667 2.17681 6.01667 2ZM8.68334 2V0.666667C8.68334 0.489856 8.75357 0.320286 8.8786 0.195262C9.00362 0.0702379 9.17319 0 9.35 0C9.52681 0 9.69638 0.0702379 9.82141 0.195262C9.94643 0.320286 10.0167 0.489856 10.0167 0.666667V2C10.0167 2.17681 9.94643 2.34638 9.82141 2.4714C9.69638 2.59643 9.52681 2.66667 9.35 2.66667C9.17319 2.66667 9.00362 2.59643 8.8786 2.4714C8.75357 2.34638 8.68334 2.17681 8.68334 2ZM3.35 2V0.666667C3.35 0.489856 3.42024 0.320286 3.54526 0.195262C3.67029 0.0702379 3.83986 0 4.01667 0C4.19348 0 4.36305 0.0702379 4.48807 0.195262C4.6131 0.320286 4.68333 0.489856 4.68333 0.666667V2C4.68333 2.17681 4.6131 2.34638 4.48807 2.4714C4.36305 2.59643 4.19348 2.66667 4.01667 2.66667C3.83986 2.66667 3.67029 2.59643 3.54526 2.4714C3.42024 2.34638 3.35 2.17681 3.35 2ZM13.3333 15.3333C13.3333 15.5101 13.2631 15.6797 13.1381 15.8047C13.0131 15.9298 12.8435 16 12.6667 16H0.666667C0.489856 16 0.320287 15.9298 0.195262 15.8047C0.0702379 15.6797 0 15.5101 0 15.3333C0 15.1565 0.0702379 14.987 0.195262 14.8619C0.320287 14.7369 0.489856 14.6667 0.666667 14.6667H12.6667C12.8435 14.6667 13.0131 14.7369 13.1381 14.8619C13.2631 14.987 13.3333 15.1565 13.3333 15.3333Z" fill="#4CAF50"/>
</g>
<defs>
<clipPath id="clip0_657_884">
<rect width="16" height="16" fill="white"/>
</clipPath>
</defs>
</svg>
