<svg width="16" height="16" viewBox="0 0 16 16" fill="none" xmlns="http://www.w3.org/2000/svg">
<g clip-path="url(#clip0_657_896)">
<path d="M0.888624 4.82536C0.322624 3.68136 -0.800042 0.846029 0.799958 0.100029C1.03784 0.00100453 1.29979 -0.0250575 1.55252 0.0251556C1.80524 0.0753687 2.03733 0.199589 2.21929 0.382029L5.52596 3.91536C5.58842 3.97673 5.63819 4.04981 5.67241 4.13041C5.70664 4.21102 5.72465 4.29757 5.72543 4.38514C5.7262 4.4727 5.70972 4.55956 5.67692 4.64076C5.64413 4.72196 5.59566 4.7959 5.53429 4.85836C5.47292 4.92083 5.39985 4.97059 5.31924 5.00482C5.23864 5.03904 5.15208 5.05706 5.06452 5.05783C4.97695 5.0586 4.89009 5.04212 4.80889 5.00933C4.7277 4.97653 4.65376 4.92807 4.59129 4.8667L1.33329 1.3867C1.41262 3.9047 2.89529 5.7867 4.56062 7.67936C4.68846 7.80225 4.76224 7.97088 4.76574 8.14816C4.76924 8.32545 4.70217 8.49686 4.57929 8.6247C4.45641 8.75253 4.28778 8.82631 4.11049 8.82981C3.93321 8.83331 3.76179 8.76625 3.63396 8.64336C2.53963 7.50965 1.61495 6.22368 0.888624 4.82536ZM12.0033 10.8C11.9125 10.7005 11.799 10.6243 11.6725 10.5779C11.5461 10.5315 11.4103 10.5162 11.2766 10.5334C10.5033 10.6372 9.71656 10.5712 8.97129 10.34C8.85717 10.3064 8.73604 10.3043 8.62085 10.3341C8.50565 10.364 8.40073 10.4245 8.31729 10.5094C7.32129 12.0134 10.5 11.918 11.192 11.896L14.8473 15.7887C14.9073 15.8525 14.9793 15.9039 15.0592 15.9399C15.139 15.9759 15.2252 15.9958 15.3128 15.9985C15.4004 16.0012 15.4876 15.9866 15.5695 15.9556C15.6515 15.9246 15.7265 15.8777 15.7903 15.8177C15.8541 15.7577 15.9055 15.6857 15.9415 15.6058C15.9775 15.5259 15.9974 15.4398 16.0001 15.3522C16.0028 15.2646 15.9882 15.1774 15.9572 15.0955C15.9262 15.0135 15.8793 14.9385 15.8193 14.8747L12.0033 10.8ZM9.99996 9.33336C10.4377 9.33398 10.8712 9.24821 11.2758 9.08096C11.6803 8.9137 12.0478 8.66826 12.3573 8.3587L15.8046 4.9107C15.8666 4.8488 15.9158 4.7753 15.9494 4.6944C15.983 4.61349 16.0003 4.52676 16.0003 4.43917C16.0004 4.35157 15.9832 4.26482 15.9497 4.18387C15.9163 4.10291 15.8672 4.02935 15.8053 3.96736C15.7434 3.90538 15.6699 3.85619 15.589 3.82261C15.5081 3.78904 15.4214 3.77172 15.3338 3.77166C15.2462 3.7716 15.1594 3.78879 15.0785 3.82225C14.9975 3.85572 14.9239 3.9048 14.862 3.9667L11.4146 7.4147C11.1219 7.70491 10.7466 7.89757 10.3401 7.96631C9.93364 8.03504 9.51587 7.9765 9.14396 7.7987L13.8046 3.13803C13.8683 3.07653 13.9191 3.00297 13.954 2.92163C13.989 2.8403 14.0074 2.75282 14.0081 2.6643C14.0089 2.57578 13.992 2.48799 13.9585 2.40606C13.925 2.32413 13.8755 2.24969 13.8129 2.1871C13.7503 2.1245 13.6759 2.075 13.5939 2.04148C13.512 2.00796 13.4242 1.99109 13.3357 1.99186C13.2472 1.99263 13.1597 2.01102 13.0784 2.04596C12.997 2.0809 12.9235 2.13169 12.862 2.19536L8.19996 6.85603C8.02215 6.48412 7.96361 6.06634 8.03235 5.65988C8.10109 5.25342 8.29374 4.87813 8.58396 4.58536L12.0333 1.13803C12.1547 1.01229 12.2219 0.843893 12.2204 0.669095C12.2189 0.494297 12.1488 0.327089 12.0252 0.203483C11.9016 0.079878 11.7344 0.0097654 11.5596 0.00824645C11.3848 0.0067275 11.2164 0.0739238 11.0906 0.195362L7.64262 3.6427C7.10045 4.1867 6.76233 4.90095 6.68523 5.66511C6.60812 6.42928 6.79673 7.19667 7.21929 7.83803L0.195291 14.862C0.0738523 14.9878 0.00665606 15.1562 0.00817501 15.331C0.00969395 15.5058 0.0798066 15.673 0.203412 15.7966C0.327017 15.9202 0.494226 15.9903 0.669024 15.9918C0.843821 15.9933 1.01222 15.9261 1.13796 15.8047L8.16196 8.7807C8.70719 9.14113 9.34636 9.33332 9.99996 9.33336Z" fill="#71717A"/>
</g>
<defs>
<clipPath id="clip0_657_896">
<rect width="16" height="16" fill="white"/>
</clipPath>
</defs>
</svg>
