<svg width="16" height="16" viewBox="0 0 16 16" fill="none" xmlns="http://www.w3.org/2000/svg">
<g clip-path="url(#clip0_657_903)">
<path d="M13.2333 7.17C13.4041 6.50102 13.3645 5.79568 13.12 5.15C13.1453 5.142 14.108 4.16267 14.1287 4.15C14.2227 4.32207 14.3653 4.46268 14.5387 4.55435C14.712 4.64601 14.9085 4.68468 15.1037 4.66554C15.2989 4.6464 15.4841 4.57029 15.6364 4.4467C15.7886 4.3231 15.9012 4.15747 15.96 3.9704C16.0189 3.78334 16.0214 3.58309 15.9673 3.39459C15.9133 3.20609 15.805 3.03764 15.6559 2.91021C15.5069 2.78278 15.3236 2.70199 15.129 2.67789C14.9344 2.65379 14.737 2.68745 14.5613 2.77467C14.6486 2.59903 14.6822 2.40162 14.6581 2.207C14.634 2.01238 14.5532 1.82915 14.4258 1.68009C14.2984 1.53103 14.1299 1.42273 13.9414 1.36866C13.7529 1.31459 13.5527 1.31714 13.3656 1.37598C13.1785 1.43483 13.0129 1.54739 12.8893 1.69964C12.7657 1.85189 12.6896 2.03713 12.6705 2.23229C12.6513 2.42746 12.69 2.62395 12.7817 2.79731C12.8733 2.97068 13.0139 3.11326 13.186 3.20733C13.176 3.222 12.186 4.19533 12.186 4.212C11.2367 3.70267 9.26933 4.212 8.09667 4.85467C4.12867 3.86667 0.0193333 6.314 0 10.6667V12.3787C0.00355882 13.1809 0.294833 13.9552 0.820883 14.5609C1.34693 15.1666 2.07284 15.5635 2.86667 15.6793C6.96467 16.3333 15.8353 16.2267 16 12C16 10.3687 14.9653 8.578 13.2333 7.17ZM9.762 5.592C10.7187 5.27133 11.5187 5.248 11.802 5.53067C12.4453 6.174 11.4267 8.95667 10.348 10.0353C8.30733 12 5.33333 9.02533 7.298 6.98533C8.01668 6.35907 8.85491 5.88507 9.762 5.592ZM6 14.6667C5.01273 14.6234 4.02895 14.5207 3.054 14.3593C2.5775 14.29 2.14172 14.052 1.82593 13.6885C1.51015 13.325 1.33535 12.8602 1.33333 12.3787V10.6667C1.3295 10.0208 1.46063 9.38127 1.71831 8.78903C1.97599 8.19679 2.35454 7.66491 2.82971 7.22746C3.30488 6.79001 3.86618 6.45664 4.47767 6.24872C5.08915 6.04079 5.73733 5.96289 6.38067 6.02C2.51733 10.6533 10.3233 15.4053 12.802 8.55333C17.6667 13.4467 12.2 14.612 6 14.6667ZM4.66667 2V0.666667C4.66667 0.489856 4.7369 0.320286 4.86193 0.195262C4.98695 0.0702379 5.15652 0 5.33333 0C5.51014 0 5.67971 0.0702379 5.80474 0.195262C5.92976 0.320286 6 0.489856 6 0.666667V2C6 2.17681 5.92976 2.34638 5.80474 2.4714C5.67971 2.59643 5.51014 2.66667 5.33333 2.66667C5.15652 2.66667 4.98695 2.59643 4.86193 2.4714C4.7369 2.34638 4.66667 2.17681 4.66667 2ZM7.33333 2V0.666667C7.33333 0.489856 7.40357 0.320286 7.5286 0.195262C7.65362 0.0702379 7.82319 0 8 0C8.17681 0 8.34638 0.0702379 8.47141 0.195262C8.59643 0.320286 8.66667 0.489856 8.66667 0.666667V2C8.66667 2.17681 8.59643 2.34638 8.47141 2.4714C8.34638 2.59643 8.17681 2.66667 8 2.66667C7.82319 2.66667 7.65362 2.59643 7.5286 2.4714C7.40357 2.34638 7.33333 2.17681 7.33333 2ZM2 2V0.666667C2 0.489856 2.07024 0.320286 2.19526 0.195262C2.32029 0.0702379 2.48986 0 2.66667 0C2.84348 0 3.01305 0.0702379 3.13807 0.195262C3.2631 0.320286 3.33333 0.489856 3.33333 0.666667V2C3.33333 2.17681 3.2631 2.34638 3.13807 2.4714C3.01305 2.59643 2.84348 2.66667 2.66667 2.66667C2.48986 2.66667 2.32029 2.59643 2.19526 2.4714C2.07024 2.34638 2 2.17681 2 2Z" fill="#71717A"/>
</g>
<defs>
<clipPath id="clip0_657_903">
<rect width="16" height="16" fill="white"/>
</clipPath>
</defs>
</svg>
