<svg width="16" height="16" viewBox="0 0 16 16" fill="none" xmlns="http://www.w3.org/2000/svg">
<g clip-path="url(#clip0_657_910)">
<path d="M15.4626 7.73327C15.1084 7.26022 14.6051 6.92037 14.0339 6.7686C14.3123 5.95939 14.518 5.12699 14.6486 4.28126C14.6913 3.97384 14.662 3.66071 14.5631 3.36652C14.4642 3.07233 14.2984 2.80512 14.0786 2.58591C13.8589 2.36671 13.5913 2.2015 13.2969 2.10328C13.0025 2.00507 12.6893 1.97654 12.3819 2.01993C12.2979 2.03126 12.0486 2.06793 11.7079 2.13393C11.9189 1.6669 12.0188 1.15737 11.9999 0.645264C11.9971 0.557716 11.9771 0.471578 11.941 0.391766C11.9049 0.311954 11.8535 0.240033 11.7896 0.180108C11.7257 0.120183 11.6506 0.0734288 11.5687 0.042514C11.4867 0.0115991 11.3995 -0.00287063 11.3119 -6.9092e-05C11.2244 0.00273244 11.1383 0.0227504 11.0584 0.0588418C10.9786 0.0949332 10.9067 0.146391 10.8468 0.210278C10.7869 0.274165 10.7401 0.349229 10.7092 0.431185C10.6783 0.513141 10.6638 0.600383 10.6666 0.687931C10.678 1.00998 10.6119 1.33005 10.4739 1.62126C10.3775 1.36103 10.24 1.11795 10.0666 0.901264C9.7719 0.565862 9.39781 0.309698 8.97854 0.1562C8.55928 0.00270124 8.10822 -0.0432331 7.66661 0.0225976C7.1824 0.061465 6.71957 0.238728 6.33328 0.533264C5.89657 0.204727 5.36825 0.0206177 4.82194 0.00659759C4.12874 -0.0605888 3.43715 0.149644 2.89861 0.591264C2.62516 0.834711 2.40438 1.1315 2.24984 1.4634C2.0953 1.7953 2.01026 2.15529 1.99994 2.52126C1.98165 3.10728 2.15227 3.68364 2.48661 4.16527C2.07988 4.514 1.76415 4.9565 1.56669 5.45455C1.36924 5.9526 1.29599 6.49124 1.35328 7.02393C0.826047 7.31773 0.415173 7.78304 0.188883 8.34258C-0.0374064 8.90212 -0.0654966 9.52222 0.109277 10.0999C0.56595 11.6889 1.41593 13.1371 2.58061 14.3106C3.69795 15.4001 5.19871 16.0068 6.75928 15.9999H9.24061C10.801 16.0069 12.3016 15.4002 13.4186 14.3106C14.5837 13.1374 15.434 11.6891 15.8906 10.0999C16.0096 9.69949 16.0329 9.27669 15.9586 8.86561C15.8842 8.45452 15.7143 8.06665 15.4626 7.73327ZM12.5673 3.33993C12.6704 3.32601 12.7754 3.33613 12.8741 3.3695C12.9727 3.40287 13.0622 3.45859 13.1357 3.5323C13.2093 3.60601 13.2647 3.69571 13.2979 3.79441C13.331 3.89311 13.3408 3.99813 13.3266 4.10126C13.1868 4.97672 12.9601 5.83608 12.6499 6.6666H10.9426L11.8046 5.8046C11.9261 5.67886 11.9932 5.51046 11.9917 5.33566C11.9902 5.16087 11.9201 4.99366 11.7965 4.87005C11.6729 4.74645 11.5057 4.67633 11.3309 4.67482C11.1561 4.6733 10.9877 4.74049 10.8619 4.86193L9.05728 6.6666H8.02461C7.97592 6.31596 8.00935 5.95881 8.12227 5.62331C8.23518 5.2878 8.42449 4.98311 8.67528 4.73326C8.95994 4.44593 10.0513 3.6666 12.5673 3.33993ZM3.33328 2.56593C3.33728 2.3824 3.37866 2.2016 3.45489 2.0346C3.53111 1.86759 3.64058 1.71788 3.77661 1.5946C4.05166 1.39129 4.39335 1.29938 4.73328 1.33726C4.89747 1.33051 5.06123 1.35856 5.21381 1.41957C5.36639 1.48058 5.50434 1.57317 5.61861 1.69126C5.70857 1.79177 5.81872 1.87217 5.94187 1.9272C6.06502 1.98222 6.19839 2.01064 6.33328 2.0106C6.46785 2.00993 6.60078 1.98098 6.72344 1.92562C6.8461 1.87027 6.95575 1.78974 7.04528 1.68926C7.1447 1.58409 7.26402 1.4997 7.39632 1.44099C7.52861 1.38228 7.67124 1.35042 7.81595 1.34726C8.03631 1.30801 8.26297 1.324 8.47565 1.39381C8.68832 1.46361 8.88037 1.58505 9.03461 1.74726C9.237 2.00636 9.34262 2.32796 9.33328 2.6566C9.33328 2.69993 9.33328 2.7946 9.33328 2.7946C8.44827 3.11328 7.69228 3.71354 7.18128 4.50326C6.76031 4.00491 6.20019 3.64353 5.57264 3.46539C4.94508 3.28724 4.27863 3.30043 3.65861 3.50326C3.43737 3.24215 3.32138 2.90796 3.33328 2.56593ZM2.66661 6.6666C2.66661 6.13617 2.87732 5.62746 3.2524 5.25238C3.62747 4.87731 4.13618 4.6666 4.66661 4.6666C5.19704 4.6666 5.70575 4.87731 6.08083 5.25238C6.4559 5.62746 6.66661 6.13617 6.66661 6.6666H2.66661ZM14.6106 9.72593C14.2123 11.0974 13.4792 12.3482 12.4773 13.3659C11.611 14.2076 10.4484 14.6748 9.24061 14.6666H6.75928C5.55113 14.6745 4.38825 14.2074 3.52128 13.3659C2.51934 12.3483 1.78622 11.0974 1.38794 9.72593C1.32818 9.52409 1.31659 9.31104 1.3541 9.10391C1.39161 8.89678 1.47719 8.70133 1.60394 8.53327C1.72694 8.36736 1.88718 8.23267 2.07176 8.14003C2.25633 8.04739 2.46009 7.99941 2.66661 7.99993H13.3333C13.5405 7.99878 13.745 8.04646 13.9303 8.13913C14.1157 8.23179 14.2766 8.36682 14.3999 8.53327C14.5258 8.70178 14.6104 8.89745 14.647 9.10457C14.6836 9.31169 14.6711 9.5245 14.6106 9.72593Z" fill="#71717A"/>
</g>
<defs>
<clipPath id="clip0_657_910">
<rect width="16" height="16" fill="white"/>
</clipPath>
</defs>
</svg>
